<?xml version="1.0" standalone="no"?>
<!DOCTYPE svg PUBLIC "-//W3C//DTD SVG 20010904//EN"
 "http://www.w3.org/TR/2001/REC-SVG-20010904/DTD/svg10.dtd">
<svg version="1.0" xmlns="http://www.w3.org/2000/svg"
 width="908.000000pt" height="168.000000pt" viewBox="0 0 908.000000 168.000000"
 preserveAspectRatio="xMidYMid meet">

<g transform="translate(0.000000,168.000000) scale(0.100000,-0.100000)"
fill="#142F43" stroke-opacity="0">
<path d="M110 820 l0 -650 65 0 65 0 0 550 0 550 33 0 c32 0 34 -2 71 -92 22
-51 143 -299 270 -551 l231 -458 98 3 98 3 195 397 c107 219 223 464 259 545
l64 148 35 3 36 3 0 -550 0 -551 70 0 70 0 0 650 0 651 -111 -3 -111 -3 -249
-520 c-137 -286 -270 -568 -296 -627 -26 -60 -49 -108 -53 -108 -3 0 -18 30
-34 68 -16 37 -153 320 -304 630 l-275 562 -114 0 -113 0 0 -650z"/>
<path d="M2240 1430 l0 -40 455 0 455 0 0 40 0 40 -455 0 -455 0 0 -40z"/>
<path d="M3580 819 l0 -651 328 5 c277 4 341 8 417 25 253 55 420 207 479 434
51 198 19 418 -85 572 -139 209 -332 265 -901 266 l-238 0 0 -651z m712 543
c130 -35 202 -82 275 -180 102 -137 139 -366 87 -544 -55 -185 -183 -306 -378
-357 -88 -23 -283 -41 -448 -41 l-108 0 0 576 0 576 248 -5 c207 -4 259 -8
324 -25z"/>
<path d="M5335 829 c-165 -352 -302 -645 -303 -650 -3 -6 24 -9 64 -7 l68 3
107 230 106 230 358 0 358 0 106 -232 106 -232 74 -1 c66 0 72 2 67 17 -4 10
-141 303 -304 650 l-297 633 -105 0 -106 0 -299 -641z m465 466 c29 -71 97
-228 151 -350 l98 -220 -154 -3 c-85 -1 -226 -1 -314 0 l-160 3 113 250 c62
138 133 300 157 362 24 61 47 106 50 100 4 -7 30 -70 59 -142z"/>
<path d="M6430 1430 l0 -40 260 0 260 0 0 -610 0 -610 70 0 70 0 0 610 0 610
260 0 260 0 0 40 0 40 -590 0 -590 0 0 -40z"/>
<path d="M8181 1433 c-10 -21 -143 -306 -296 -633 -152 -327 -281 -603 -286
-612 -9 -16 -3 -18 59 -18 l68 0 109 235 108 235 356 0 356 0 107 -233 106
-232 76 -3 76 -3 -56 118 c-30 65 -168 358 -306 651 l-251 532 -103 0 -104 0
-19 -37z m164 -90 c21 -54 89 -214 152 -356 62 -142 113 -260 113 -263 0 -2
-141 -4 -314 -4 l-314 0 112 248 c62 136 132 298 157 359 24 62 47 113 50 113
3 0 23 -44 44 -97z"/>
<path d="M2240 825 l0 -35 455 0 455 0 0 35 0 35 -455 0 -455 0 0 -35z"/>
<path d="M2240 205 l0 -35 455 0 455 0 0 35 0 35 -455 0 -455 0 0 -35z"/>
</g>
</svg>
