<?xml version="1.0" standalone="no"?>
<!DOCTYPE svg PUBLIC "-//W3C//DTD SVG 20010904//EN"
 "http://www.w3.org/TR/2001/REC-SVG-20010904/DTD/svg10.dtd">
<svg version="1.0" xmlns="http://www.w3.org/2000/svg"
 width="1282.000000pt" height="345.000000pt" viewBox="0 0 1282.000000 345.000000"
 preserveAspectRatio="xMidYMid meet">

<g transform="translate(0.000000,345.000000) scale(0.100000,-0.100000)"
fill="#142F43" stroke="none">
<path d="M4418 2850 l-26 -60 -61 0 c-50 0 -61 -3 -61 -17 0 -14 -2 -14 -20 2
-16 14 -23 16 -32 7 -9 -9 -4 -20 20 -45 28 -28 32 -40 32 -85 l0 -52 95 0 95
0 0 94 c0 57 -4 96 -10 98 -7 2 -3 22 10 51 12 26 18 52 15 57 -14 22 -32 7
-57 -50z m-54 -122 c-23 -45 -21 -44 -49 -18 -38 36 -32 50 20 50 l46 0 -17
-32z m76 -33 l0 -65 -35 0 c-19 0 -35 4 -35 10 0 16 54 120 62 120 4 0 8 -29
8 -65z m-120 -40 l23 -25 -26 0 c-22 0 -27 5 -27 25 0 14 1 25 3 25 2 0 14
-11 27 -25z"/>
<path d="M182 1623 l3 -918 98 -3 97 -3 0 775 c0 845 -4 786 55 786 19 0 30
-18 80 -137 32 -76 204 -426 381 -778 l322 -640 139 -3 139 -3 291 593 c160
326 326 677 369 781 l79 187 35 -2 35 -3 5 -775 5 -775 103 -3 102 -3 0 921 0
920 -158 0 -157 0 -355 -741 c-195 -408 -382 -804 -415 -880 -33 -76 -63 -135
-66 -131 -4 4 -30 61 -59 127 -29 66 -218 458 -421 870 l-367 750 -171 3 -171
2 2 -917z"/>
<path d="M5050 1620 l0 -923 388 6 c554 9 714 32 917 132 249 122 403 341 446
635 17 116 7 333 -20 434 -43 163 -139 318 -259 419 -114 96 -303 168 -517
197 -53 7 -266 14 -522 17 l-433 5 0 -922z m915 776 c227 -39 379 -131 486
-293 92 -141 130 -284 130 -484 0 -383 -188 -643 -533 -739 -85 -23 -265 -49
-340 -50 l-48 0 0 695 0 695 -200 0 -200 0 0 101 0 102 308 -6 c206 -4 337
-11 397 -21z m-315 -876 l0 -680 -190 0 -190 0 0 680 0 680 190 0 190 0 0
-680z"/>
<path d="M5327 2104 c-4 -4 -7 -115 -7 -246 l0 -238 135 0 135 0 -2 243 -3
242 -126 3 c-69 1 -128 -1 -132 -4z m251 -241 l-3 -228 -120 0 -120 0 -3 228
-2 227 125 0 125 0 -2 -227z"/>
<path d="M5370 2005 c0 -12 16 -15 85 -15 69 0 85 3 85 15 0 12 -16 15 -85 15
-69 0 -85 -3 -85 -15z"/>
<path d="M5370 1915 c0 -12 16 -15 85 -15 69 0 85 3 85 15 0 12 -16 15 -85 15
-69 0 -85 -3 -85 -15z"/>
<path d="M5370 1825 c0 -12 16 -15 85 -15 69 0 85 3 85 15 0 12 -16 15 -85 15
-69 0 -85 -3 -85 -15z"/>
<path d="M5403 1160 c-70 -42 -63 -149 13 -185 119 -56 209 131 92 191 -37 19
-67 18 -105 -6z m99 -11 c55 -30 53 -125 -4 -155 -57 -29 -114 2 -125 69 -5
31 -1 40 25 67 32 32 68 38 104 19z"/>
<path d="M7500 1629 c-234 -501 -426 -915 -428 -920 -2 -5 42 -9 100 -9 l104
0 154 335 154 335 490 0 491 0 154 -335 154 -335 107 0 108 0 186 87 c102 48
186 91 186 95 0 10 -579 1241 -588 1249 -4 4 -87 -31 -186 -77 -98 -46 -179
-84 -181 -84 -1 0 -62 128 -136 285 l-134 285 -155 0 -155 0 -425 -911z m630
726 c24 -60 117 -277 206 -482 90 -204 164 -374 164 -377 0 -3 -193 -6 -429
-6 l-429 0 158 348 c86 191 183 413 215 495 32 81 62 144 66 140 4 -5 26 -57
49 -118z m1024 -851 c273 -579 289 -617 270 -627 -52 -31 -308 -147 -316 -145
-5 2 -139 279 -298 616 l-288 613 111 52 c62 29 137 64 167 79 30 14 57 27 60
27 3 0 135 -276 294 -615z"/>
<path d="M8733 1924 l-111 -55 48 -102 c26 -56 73 -155 103 -219 l55 -117 120
56 120 57 -17 37 c-70 159 -188 398 -196 398 -5 0 -60 -25 -122 -55z m223
-168 c52 -109 94 -201 94 -203 0 -6 -212 -104 -216 -100 -9 9 -195 409 -192
413 12 11 195 93 206 91 8 -1 56 -92 108 -201z"/>
<path d="M8765 1851 c-52 -24 -75 -40 -67 -45 14 -8 162 52 162 65 0 19 -21
15 -95 -20z"/>
<path d="M8798 1778 c-38 -17 -68 -37 -68 -45 0 -7 2 -13 4 -13 16 0 156 72
156 80 0 16 -21 12 -92 -22z"/>
<path d="M8831 1704 c-51 -24 -71 -38 -64 -45 14 -14 168 56 158 71 -8 14 -9
13 -94 -26z"/>
<path d="M9134 1116 c-37 -16 -69 -76 -59 -113 17 -69 76 -104 139 -83 89 29
96 160 10 196 -41 17 -50 17 -90 0z m99 -26 c72 -57 16 -175 -74 -155 -40 9
-64 40 -64 87 0 74 80 113 138 68z"/>
<path d="M9040 2480 l0 -60 365 0 365 0 0 -860 0 -860 105 0 105 0 0 860 0
860 370 0 370 0 0 60 0 60 -840 0 -840 0 0 -60z"/>
<path d="M11502 2503 c-63 -125 -832 -1781 -832 -1791 0 -8 29 -12 99 -12 l98
0 154 335 154 335 491 0 491 0 148 -322 c81 -178 152 -329 158 -335 11 -15
231 -19 225 -4 -1 5 -196 419 -432 920 l-429 911 -153 0 -154 0 -18 -37z m450
-685 l146 -328 -429 0 c-236 0 -429 3 -429 6 0 4 65 149 144 323 79 174 171
386 206 471 34 85 67 164 72 174 9 16 22 -10 78 -150 37 -93 133 -316 212
-496z"/>
<path d="M3180 2480 l0 -50 635 0 635 0 0 50 0 50 -635 0 -635 0 0 -50z"/>
<path d="M4420 2005 l-29 -65 -61 0 c-39 0 -60 -4 -60 -12 0 -6 -8 -4 -19 6
-16 15 -19 15 -31 1 -11 -13 -8 -21 18 -48 27 -28 32 -41 32 -80 l0 -47 95 0
95 0 0 89 c0 58 -4 91 -11 93 -8 3 -5 20 10 52 25 58 25 62 6 70 -12 4 -23
-11 -45 -59z m-55 -121 c-8 -20 -15 -39 -15 -42 0 -3 -13 7 -30 23 -43 41 -39
55 15 55 l45 0 -15 -36z m75 -34 l0 -70 -39 0 -40 0 26 58 c25 55 41 82 49 82
2 0 4 -31 4 -70z m-90 -67 c0 -2 -13 -3 -30 -3 -25 0 -30 4 -30 25 l0 26 30
-23 c17 -12 30 -23 30 -25z"/>
<path d="M3180 1635 l0 -55 635 0 635 0 0 55 0 55 -635 0 -635 0 0 -55z"/>
<path d="M4420 1135 l-29 -65 -61 0 c-39 0 -60 -4 -60 -12 0 -6 -8 -4 -19 6
-16 15 -19 15 -31 1 -11 -13 -8 -21 18 -48 27 -28 32 -41 32 -80 l0 -47 95 0
95 0 0 89 c0 58 -4 91 -11 93 -8 3 -5 20 10 52 25 58 25 62 6 70 -12 4 -23
-11 -45 -59z m-55 -122 c-9 -20 -17 -38 -19 -40 -7 -7 -57 57 -52 66 4 6 25
11 47 11 l39 0 -15 -37z m75 -38 l0 -65 -40 0 -41 0 15 28 c7 15 21 44 29 65
24 56 37 46 37 -28z m-120 -40 l23 -25 -26 0 c-22 0 -27 5 -27 25 0 14 1 25 3
25 2 0 14 -11 27 -25z"/>
<path d="M3180 765 l0 -55 635 0 635 0 0 55 0 55 -635 0 -635 0 0 -55z"/>
</g>
</svg>
